# xmcd
#
# Track frame offsets: 
#        150
#        11292
#        24757
#        35977
#        46447
#        59152
#        73025
#        84295
#        91637
#        102650
#        111957
#        122527
#
# Disc length: 1943 seconds
#
# Revision: 1
# Processed by: cddbd v1.5.2PL0 Copyright (c) Steve Scherf et al.
# Submitted via: ExactAudioCopy v0.95b4
#
DISCID=9807950c
DTITLE=Various Artist - The Best of Irish Folk - Vol. 1
DYEAR=1996
DGENRE=Folk
TTITLE0=Sweet Betsy from Pike
TTITLE1=Champion at keepin them rollin
TTITLE2=Gentleman soldier
TTITLE3=Night visiting sun
TTITLE4=Gartan mothers lullaby
TTITLE5=Foggy dew
TTITLE6=Whiskey in the jar
TTITLE7=Greensleeves
TTITLE8=Loch Lomond
TTITLE9=Lord Randall
TTITLE10=Turtle dove
TTITLE11=As I roved out
EXTD=
EXTT0=
EXTT1=
EXTT2=
EXTT3=
EXTT4=
EXTT5=
EXTT6=
EXTT7=
EXTT8=
EXTT9=
EXTT10=
EXTT11=
PLAYORDER=
